<?xml version="1.0" encoding="UTF-8" standalone="no"?>
<svg
   width="16"
   height="12"
   fill="currentColor"
   class="bi bi-pause-btn"
   viewBox="0 0 16 12"
   version="1.1"
   id="svg6"
   sodipodi:docname="pause_btn.svg"
   inkscape:version="1.2 (dc2aedaf03, 2022-05-15)"
   xmlns:inkscape="http://www.inkscape.org/namespaces/inkscape"
   xmlns:sodipodi="http://sodipodi.sourceforge.net/DTD/sodipodi-0.dtd"
   xmlns="http://www.w3.org/2000/svg"
   xmlns:svg="http://www.w3.org/2000/svg">
  <defs
     id="defs10" />
  <sodipodi:namedview
     id="namedview8"
     pagecolor="#ffffff"
     bordercolor="#111111"
     borderopacity="1"
     inkscape:showpageshadow="0"
     inkscape:pageopacity="0"
     inkscape:pagecheckerboard="1"
     inkscape:deskcolor="#d1d1d1"
     showgrid="false"
     inkscape:zoom="32.8125"
     inkscape:cx="6.2933333"
     inkscape:cy="6.0038095"
     inkscape:window-width="1366"
     inkscape:window-height="705"
     inkscape:window-x="-8"
     inkscape:window-y="-8"
     inkscape:window-maximized="1"
     inkscape:current-layer="svg6" />
  <path
     d="M 6.25,3 C 5.56,3 5,3.56 5,4.25 v 3.5 a 1.25,1.25 0 1 0 2.5,0 V 4.25 C 7.5,3.56 6.94,3 6.25,3 Z m 3.5,0 C 9.06,3 8.5,3.56 8.5,4.25 v 3.5 a 1.25,1.25 0 1 0 2.5,0 V 4.25 C 11,3.56 10.44,3 9.75,3 Z"
     id="path2" />
  <path
     d="M 0,2 A 2,2 0 0 1 2,0 h 12 a 2,2 0 0 1 2,2 v 8 a 2,2 0 0 1 -2,2 H 2 A 2,2 0 0 1 0,10 Z M 15,2 A 1,1 0 0 0 14,1 H 2 A 1,1 0 0 0 1,2 v 8 a 1,1 0 0 0 1,1 h 12 a 1,1 0 0 0 1,-1 z"
     id="path4" />
</svg>
